<?xml version="1.0" encoding="UTF-8" standalone="no"?>
<svg width="15px" height="15px" viewBox="0 0 15 15" version="1.1" xmlns="http://www.w3.org/2000/svg" xmlns:xlink="http://www.w3.org/1999/xlink">
    <!-- Generator: sketchtool 3.7.2 (28276) - http://www.bohemiancoding.com/sketch -->
    <title>1319F274-7348-4A24-B7BC-9FD72954E41E</title>
    <desc>Created with sketchtool.</desc>
    <defs></defs>
    <g id="Symbols" stroke="none" stroke-width="1" fill="none" fill-rule="evenodd">
        <g id="check" fill="#333333">
            <path d="M7.5,14 L7.5,14 C11.0898509,14 14,11.0898509 14,7.5 C14,3.91014913 11.0898509,1 7.5,1 C3.91014913,1 1,3.91014913 1,7.5 C1,11.0898509 3.91014913,14 7.5,14 L7.5,14 Z M7.5,15 L7.5,15 C3.35786438,15 0,11.6421356 0,7.5 C0,3.35786438 3.35786438,0 7.5,0 C11.6421356,0 15,3.35786438 15,7.5 C15,11.6421356 11.6421356,15 7.5,15 L7.5,15 Z M4.67226357,9.29427603 L6.8805969,11.2109427 C7.10986425,11.4099295 7.46210899,11.3603601 7.62755514,11.1058275 L11.4192218,5.27249418 C11.5697162,5.04096436 11.504024,4.73127257 11.2724942,4.58077819 C11.0409644,4.43028381 10.7312726,4.49597601 10.5807782,4.72750582 L6.78911153,10.5608392 L7.53606976,10.455724 L5.32773643,8.5390573 C5.11918854,8.35805347 4.80339447,8.38038234 4.62239064,8.58893024 C4.4413868,8.79747813 4.46371568,9.1132722 4.67226357,9.29427603 L4.67226357,9.29427603 Z" id="Combined-Shape"></path>
        </g>
    </g>
</svg>