<?xml version="1.0" encoding="UTF-8" standalone="no"?>
<svg width="15px" height="20px" viewBox="0 0 15 20" version="1.1" xmlns="http://www.w3.org/2000/svg" xmlns:xlink="http://www.w3.org/1999/xlink">
    <!-- Generator: sketchtool 3.7.2 (28276) - http://www.bohemiancoding.com/sketch -->
    <title>371B9047-C37E-484A-B7DB-DC9D4A340F8E</title>
    <desc>Created with sketchtool.</desc>
    <defs></defs>
    <g id="Symbols" stroke="none" stroke-width="1" fill="none" fill-rule="evenodd">
        <g id="conclusion-min" transform="translate(-18.000000, -15.000000)" fill="#FFFFFF">
            <g id="Group-5">
                <g transform="translate(18.000000, 11.000000)">
                    <path d="M10.4142136,4 L15,8.58578644 L15,24 L-4.70734562e-14,24 L-4.70734562e-14,4 L10.4142136,4 Z M14,23 L1.00000001,23 L1.00000001,5 L9,5 L9,7 C9,8.65703201 10.3430806,10 12,10 L14,10 L14,23 Z M14,9 L10,5 L10,7 C10,8.10481236 10.8954305,9 12,9 L14,9 L14,9 Z M3.00000001,19.7 C3.00000001,19.4238576 3.22247315,19.2 3.50966585,19.2 L11.4903342,19.2 C11.7718148,19.2 12,19.4319336 12,19.7 C12,19.9761424 11.7775269,20.2 11.4903342,20.2 L3.50966585,20.2 C3.22818518,20.2 3.00000001,19.9680664 3.00000001,19.7 Z M3.00000001,16.7 C3.00000001,16.4238576 3.22247315,16.2 3.50966585,16.2 L11.4903342,16.2 C11.7718148,16.2 12,16.4319336 12,16.7 C12,16.9761424 11.7775269,17.2 11.4903342,17.2 L3.50966585,17.2 C3.22818518,17.2 3.00000001,16.9680664 3.00000001,16.7 Z M3.00000001,13.7 C3.00000001,13.4238576 3.22788049,13.2 3.49100519,13.2 L8.50899482,13.2 C8.7801695,13.2 9,13.4319336 9,13.7 C9,13.9761424 8.77211953,14.2 8.50899482,14.2 L3.49100519,14.2 C3.21983052,14.2 3.00000001,13.9680664 3.00000001,13.7 Z" id="doc-icon"></path>
                </g>
            </g>
        </g>
    </g>
</svg>