<?xml version="1.0" encoding="UTF-8" standalone="no"?>
<svg width="11px" height="10px" viewBox="0 0 11 10" version="1.1" xmlns="http://www.w3.org/2000/svg" xmlns:xlink="http://www.w3.org/1999/xlink">
    <!-- Generator: sketchtool 3.8.3 (29802) - http://www.bohemiancoding.com/sketch -->
    <title>5C9BB2D1-B7A2-4CAA-B556-7F61E1DA9A3C</title>
    <desc>Created with sketchtool.</desc>
    <defs></defs>
    <g id="Lawyer" stroke="none" stroke-width="1" fill="none" fill-rule="evenodd">
        <g id="law_order-popup-conclusion" transform="translate(-79.000000, -41.000000)" fill="#384D76">
            <g id="header" transform="translate(20.000000, 20.000000)">
                <g id="docx" transform="translate(0.000000, 11.000000)">
                    <g id="arow" transform="translate(59.000000, 10.000000)">
                        <path d="M10,9 L1,9 L1,4.5 C1,4.22385763 0.776142375,4 0.5,4 C0.223857625,4 0,4.22385763 0,4.5 L0,9.5 C0,9.77614237 0.223857625,10 0.5,10 L10.5,10 C10.7761424,10 11,9.77614237 11,9.5 L11,4.5 C11,4.22385763 10.7761424,4 10.5,4 C10.2238576,4 10,4.22385763 10,4.5 L10,9 Z" id="Rectangle-200"></path>
                        <path d="M5.98139881,0.611607143 C5.98139881,0.345737922 5.76586922,0.130208333 5.5,0.130208333 C5.23413078,0.130208333 5.01860119,0.345737922 5.01860119,0.611607143 L5.01860119,6.38839286 C5.01860119,6.65426208 5.23413078,6.86979167 5.5,6.86979167 C5.76586922,6.86979167 5.98139881,6.65426208 5.98139881,6.38839286 L5.98139881,0.611607143 L5.98139881,0.611607143 L5.98139881,0.611607143 L5.98139881,0.611607143 L5.98139881,0.611607143 L5.98139881,0.611607143 L5.98139881,0.611607143 L5.98139881,0.611607143 Z M5.84040036,6.72879322 L8.24739441,4.32179917 C8.43539234,4.13380124 8.43539234,3.82899638 8.24739441,3.64099845 C8.05939648,3.45300052 7.75459161,3.45300052 7.56659368,3.64099845 L5.15959964,6.04799249 C4.97160171,6.23599042 4.97160171,6.54079529 5.15959964,6.72879322 C5.34759757,6.91679115 5.65240243,6.91679115 5.84040036,6.72879322 L5.84040036,6.72879322 L5.84040036,6.72879322 L5.84040036,6.72879322 L5.84040036,6.72879322 L5.84040036,6.72879322 L5.84040036,6.72879322 L5.84040036,6.72879322 L5.84040036,6.72879322 L5.84040036,6.72879322 L5.84040036,6.72879322 L5.84040036,6.72879322 L5.84040036,6.72879322 L5.84040036,6.72879322 L5.84040036,6.72879322 Z M5.84040036,6.04799249 L3.43340632,3.64099845 C3.24540839,3.45300052 2.94060352,3.45300052 2.75260559,3.64099845 C2.56460766,3.82899638 2.56460766,4.13380124 2.75260559,4.32179917 L5.15959964,6.72879322 C5.34759757,6.91679115 5.65240243,6.91679115 5.84040036,6.72879322 C6.02839829,6.54079529 6.02839829,6.23599042 5.84040036,6.04799249 L5.84040036,6.04799249 L5.84040036,6.04799249 L5.84040036,6.04799249 L5.84040036,6.04799249 L5.84040036,6.04799249 L5.84040036,6.04799249 L5.84040036,6.04799249 L5.84040036,6.04799249 L5.84040036,6.04799249 L5.84040036,6.04799249 L5.84040036,6.04799249 L5.84040036,6.04799249 L5.84040036,6.04799249 L5.84040036,6.04799249 Z" id="Combined-Shape"></path>
                    </g>
                </g>
            </g>
        </g>
    </g>
</svg>