<?xml version="1.0" encoding="UTF-8" standalone="no"?>
<svg width="20px" height="12px" viewBox="0 0 20 12" version="1.1" xmlns="http://www.w3.org/2000/svg" xmlns:xlink="http://www.w3.org/1999/xlink">
    <!-- Generator: sketchtool 3.7.2 (28276) - http://www.bohemiancoding.com/sketch -->
    <title>3F33D2A2-7439-4E8F-836B-8385818989B5</title>
    <desc>Created with sketchtool.</desc>
    <defs></defs>
    <g id="Lawyer" stroke="none" stroke-width="1" fill="none" fill-rule="evenodd">
        <g id="law_order" transform="translate(-940.000000, -89.000000)" fill="#CCCCCC">
            <g id="right-side" transform="translate(780.000000, 70.000000)">
                <g id="tags">
                    <path d="M175.877652,21.5455962 C178.376004,22.9882794 180,24.801928 180,24.801928 C180,24.801928 175.522847,29.801928 170,29.801928 C169.266385,29.801928 168.551221,29.7137054 167.862551,29.5606978 L169.642411,27.7808374 C169.759667,27.7947641 169.878997,27.801928 170,27.801928 C171.656854,27.801928 173,26.4587823 173,24.801928 C173,24.6809248 172.992836,24.5615948 172.978909,24.444339 L175.877652,21.5455962 L175.877652,21.5455962 L175.877652,21.5455962 L175.877652,21.5455962 L175.877652,21.5455962 L175.877652,21.5455962 Z M172.930345,20.2502631 C172.0036,19.9723482 171.019621,19.801928 170,19.801928 C164.477153,19.801928 160,24.801928 160,24.801928 C160,24.801928 161.907684,26.9323934 164.76864,28.4119673 L167.228426,25.9521815 C167.081247,25.5979502 167,25.2094273 167,24.801928 C167,23.1450738 168.343146,21.801928 170,21.801928 C170.407499,21.801928 170.796022,21.8831752 171.150254,22.0303541 L172.930345,20.2502631 L172.930345,20.2502631 L172.930345,20.2502631 L172.930345,20.2502631 Z M175.452298,19.1425234 C175.646151,18.9486698 175.967303,18.9555222 176.156854,19.1450738 C176.352116,19.3403359 176.350473,19.6585613 176.159405,19.8496301 L165.547702,30.4613326 C165.353849,30.6551862 165.032697,30.6483338 164.843146,30.4587823 C164.647884,30.2635201 164.649527,29.9452947 164.840595,29.7542259 L175.452298,19.1425234 L175.452298,19.1425234 L175.452298,19.1425234 Z" id="Combined-Shape"></path>
                </g>
            </g>
        </g>
    </g>
</svg>