<?xml version="1.0" encoding="UTF-8" standalone="no"?>
<svg width="30px" height="30px" viewBox="0 0 30 30" version="1.1" xmlns="http://www.w3.org/2000/svg" xmlns:xlink="http://www.w3.org/1999/xlink">
    <!-- Generator: sketchtool 3.7.2 (28276) - http://www.bohemiancoding.com/sketch -->
    <title>4A921051-8B44-4AB2-99E0-A578C82C68EE</title>
    <desc>Created with sketchtool.</desc>
    <defs>
        <rect id="path-1" x="0" y="0" width="30" height="30"></rect>
        <mask id="mask-2" maskContentUnits="userSpaceOnUse" maskUnits="objectBoundingBox" x="0" y="0" width="30" height="30" fill="white">
            <use xlink:href="#path-1"></use>
        </mask>
    </defs>
    <g id="User" stroke="none" stroke-width="1" fill="none" fill-rule="evenodd">
        <g id="user_order-1440" transform="translate(-1100.000000, -261.000000)">
            <g id="Content" transform="translate(220.000000, 130.000000)">
                <g id="img-box" transform="translate(0.000000, 61.000000)">
                    <g id="fullscreen" transform="translate(880.000000, 70.000000)">
                        <use id="Rectangle-83" stroke="#E6EEF2" mask="url(#mask-2)" stroke-width="2" fill="#F9F9F9" xlink:href="#path-1"></use>
                        <g id="Group" transform="translate(8.000000, 8.000000)" fill="#384D76">
                            <path d="M6.03928889,8.42006667 L1.44184444,13.0192222 L4.14493333,13.0192222 C4.37795556,13.0192222 4.56695556,13.2082222 4.56695556,13.4412444 C4.56695556,13.6742667 4.3778,13.8632667 4.14493333,13.8632667 L0.422022222,13.8632667 C0.313911111,13.8632667 0.205955556,13.8228222 0.1232,13.7400667 C0.0404444444,13.6574667 0,13.5493556 0,13.4414 L0,9.7202 C0,9.48546667 0.189155556,9.29817778 0.422022222,9.29817778 C0.654888889,9.29817778 0.844044444,9.48562222 0.844044444,9.7202 L0.844044444,12.4232889 L5.4432,7.82413333 C5.60871111,7.65862222 5.87548889,7.65862222 6.03928889,7.82413333 C6.2048,7.98793333 6.2048,8.25642222 6.03928889,8.42006667 L6.03928889,8.42006667 Z" id="Shape"></path>
                            <path d="M14,0.422177778 L14,4.14508889 C14,4.37811111 13.811,4.56711111 13.5779778,4.56711111 C13.3449556,4.56711111 13.1559556,4.37811111 13.1559556,4.14508889 L13.1559556,1.44184444 L8.5736,6.0242 C8.49084444,6.10695556 8.38288889,6.1474 8.27477778,6.1474 C8.16666667,6.1474 8.05855556,6.10695556 7.9758,6.0242 C7.81044444,5.85868889 7.81044444,5.59191111 7.9758,5.42826667 L12.558,0.844355556 L9.85506667,0.844355556 C9.62204444,0.844355556 9.43304444,0.6552 9.43304444,0.422333333 C9.43304444,0.189155556 9.62204444,0 9.85506667,0 L13.5779778,0 C13.6860889,0 13.7942,0.0404444444 13.8768,0.1232 C13.9595556,0.205955556 14,0.314066667 14,0.422177778 L14,0.422177778 Z" id="Shape"></path>
                        </g>
                    </g>
                </g>
            </g>
        </g>
    </g>
</svg>