<?xml version="1.0" encoding="UTF-8" standalone="no"?>
<svg width="21px" height="21px" viewBox="0 0 21 21" version="1.1" xmlns="http://www.w3.org/2000/svg" xmlns:xlink="http://www.w3.org/1999/xlink">
    <!-- Generator: sketchtool 3.7.2 (28276) - http://www.bohemiancoding.com/sketch -->
    <title>CC41AF23-9309-4D96-92EB-AA894DE30EF7</title>
    <desc>Created with sketchtool.</desc>
    <defs></defs>
    <g id="Symbols" stroke="none" stroke-width="1" fill="none" fill-rule="evenodd">
        <g id="shiled-20">
            <rect id="cont" x="0" y="0" width="20" height="20"></rect>
            <path d="M4,3.75 C4,3.75 7.89954542,2.25 10,2.25 C11.8995454,2.25 16,3.75 16,3.75 L16,6.74686968 C16,10.062307 13.8508095,14.3618929 11.199769,16.3501733 L10,17.25 L8.80023101,16.3501733 C6.14913663,14.3618525 4,10.0497032 4,6.74686968 L4,3.75 L4,3.75 L4,3.75 L4,3.75 Z M5.5,6.74686968 C5.5,9.58218713 7.43053499,13.4479012 9.70023101,15.1501733 L10,15.3867588 L10.299769,15.1501733 C12.5730676,13.4451993 14.5,9.59021246 14.5,6.74686968 L14.5,4.80502233 C14.5,4.80502233 12.5151091,4.21620559 12.1560083,4.12444141 C11.2113174,3.88303626 10.4495323,3.75 10,3.75 C9.53183301,3.75 8.83971015,3.8592535 8.00601979,4.06173913 C7.57646497,4.16606884 5.5,4.80502233 5.5,4.80502233 L5.5,6.74686968 L5.5,6.74686968 L5.5,6.74686968 L5.5,6.74686968 Z M8.17893681,9.65016771 L9.91491588,9.65016763 L12.9458821,6.55144096 L10.1337343,12.4328634 L8.17893681,9.65016771 Z" id="Combined-Shape" fill="#333333"></path>
        </g>
    </g>
</svg>