<?xml version="1.0" encoding="UTF-8" standalone="no"?>
<svg width="20px" height="20px" viewBox="0 0 20 20" version="1.1" xmlns="http://www.w3.org/2000/svg" xmlns:xlink="http://www.w3.org/1999/xlink">
    <!-- Generator: sketchtool 3.7.2 (28276) - http://www.bohemiancoding.com/sketch -->
    <title>E7E30051-EED4-45AF-A139-AB618A0A0C12</title>
    <desc>Created with sketchtool.</desc>
    <defs></defs>
    <g id="Symbols" stroke="none" stroke-width="1" fill="none" fill-rule="evenodd">
        <g id="footer" transform="translate(-20.000000, -11.000000)">
            <g id="Group-5">
                <g id="help_icon" transform="translate(20.000000, 11.000000)">
                    <rect id="Rectangle-94" x="0" y="0" width="20" height="20"></rect>
                    <path d="M19,9.71801213 C18.9297286,7.41845746 18.0014998,5.26677723 16.3673613,3.63263874 C14.7332228,1.99850024 12.5815425,1.07027138 10.2819879,1 L9.71801213,1 C7.41845746,1.07027138 5.26677723,1.99850024 3.63263874,3.63263874 C1.99850024,5.26677723 1.07027138,7.41845746 1,9.71801213 L1,10.2819879 C1.07027138,12.5815425 1.99850024,14.7332228 3.63263874,16.3673613 C5.26677723,18.0014998 7.41845746,18.9297286 9.71801213,19 L10.2819879,19 C12.5815425,18.9297286 14.7332228,18.0014998 16.3673613,16.3673613 C18.0014998,14.7332228 18.9297286,12.5815425 19,10.2819879 L19,9.71801213 Z M16.7707543,4.95741774 L14.3603972,7.36773725 C13.9326028,6.66171482 13.3382852,6.06739719 12.6322628,5.63960279 L15.0425823,3.22924569 C15.3672067,3.47205605 15.6767542,3.73960614 15.9685928,4.03140718 C16.2603939,4.32324583 16.527944,4.63279331 16.7707543,4.95741774 L16.7707543,4.95741774 Z M14.0613773,12.0062121 C14.0464131,12.0277936 14.0349456,12.0509542 14.0267116,12.0750547 C13.5945934,12.9102276 12.9102276,13.5945934 12.0750171,14.0267492 C12.050879,14.0349832 12.0276432,14.0465259 12.0059865,14.0615277 C11.4009533,14.3615628 10.7198962,14.5306051 10,14.5306051 C9.28006617,14.5306051 8.59897148,14.3615252 7.99390071,14.0614149 C7.97231924,14.0464507 7.94912103,14.0349456 7.92502047,14.0267116 C7.08981,13.5945934 6.40544425,12.91019 5.97332604,12.0750171 C5.96509199,12.050879 5.95354929,12.0276808 5.93858513,12.0060993 C5.63847484,11.4010285 5.46939492,10.7199338 5.46939492,10 C5.46939492,9.28014137 5.63843724,8.59912187 5.93847234,7.9940887 C5.95347409,7.97243203 5.96505439,7.94915863 5.97328844,7.92498287 C6.40544425,7.0897724 7.08981,6.40540665 7.92502047,5.97328844 C7.94912103,5.96505439 7.97228164,5.95354929 7.99386311,5.93858513 C8.59897148,5.63847484 9.28006617,5.46939492 10,5.46939492 C10.7198962,5.46939492 11.4009533,5.63843724 12.0059865,5.93850993 C12.0276056,5.95351169 12.0508414,5.96505439 12.0750171,5.97328844 C12.9102276,6.40540665 13.5945934,7.08981 14.0267116,7.92498287 C14.0349456,7.94912103 14.0464883,7.97235683 14.0614901,7.9939759 C14.3615252,8.59904667 14.5306051,9.28010377 14.5306051,10 C14.5306051,10.7199714 14.3615252,11.4011037 14.0613773,12.0062121 L14.0613773,12.0062121 Z M10,18.4408369 C8.35307805,18.4408369 6.7784578,17.9718346 5.42773591,17.0978978 L7.88930201,14.6363317 C8.53272313,14.9304263 9.24754357,15.0945808 10,15.0945808 C10.7524564,15.0945808 11.4672393,14.9304639 12.1106604,14.6363693 L14.5722265,17.0979354 C13.2215046,17.9718346 11.6469219,18.4408369 10,18.4408369 L10,18.4408369 Z M10,1.55916314 C11.6468843,1.55916314 13.2215046,2.02816537 14.5722265,2.90206457 L12.1106604,5.36366827 C11.4672393,5.06957372 10.7524564,4.90541918 10,4.90541918 C9.24754357,4.90541918 8.53272313,5.06953612 7.88930201,5.36366827 L5.42773591,2.90210217 C6.7784578,2.02816537 8.35307805,1.55916314 10,1.55916314 L10,1.55916314 Z M4.03140718,4.03144478 C4.32320823,3.73964373 4.63275571,3.47213124 4.95734255,3.22932089 L7.36766205,5.63967799 C6.66167722,6.06747239 6.06732199,6.66182762 5.6395652,7.36785004 L3.22920809,4.95753054 C3.47205605,4.63283091 3.73960614,4.32324583 4.03140718,4.03144478 L4.03140718,4.03144478 Z M2.90202697,5.42781111 L5.36363067,7.8893772 C5.06953612,8.53279832 4.90541918,9.24758117 4.90541918,10 C4.90541918,10.7524564 5.06957372,11.4672769 5.36366827,12.110698 L2.90210217,14.5722641 C2.02816537,13.2215422 1.55916314,11.6469219 1.55916314,10 C1.55916314,8.35311565 2.02812777,6.77853299 2.90202697,5.42781111 L2.90202697,5.42781111 Z M3.22932089,15.0426575 L5.63964039,12.6323004 C6.06743479,13.3382852 6.66171482,13.9325652 7.36769965,14.3603596 L4.95738014,16.7706791 C4.63279331,16.5278688 4.32324583,16.2603563 4.03144478,15.9685552 C3.73964373,15.6767918 3.47213124,15.3672443 3.22932089,15.0426575 L3.22932089,15.0426575 Z M15.9685928,15.9685552 C15.6767918,16.2603563 15.3672067,16.5278688 15.0426199,16.7707167 L12.6323004,14.3603972 C13.3382852,13.9326404 13.9325652,13.3383228 14.3603596,12.6323755 L16.7706791,15.0427327 C16.5278688,15.3672819 16.2603563,15.6767918 15.9685928,15.9685552 L15.9685928,15.9685552 Z M17.0978602,14.5723393 L14.6363317,12.1107732 C14.9304263,11.4673145 15.0945808,10.752494 15.0945808,10 C15.0945808,9.24754357 14.9304639,8.53276072 14.6363693,7.88933961 L17.097973,5.42777351 C17.9718346,6.7784954 18.4408369,8.35311565 18.4408369,10 C18.4408369,11.6469595 17.9718346,13.2216174 17.0978602,14.5723393 L17.0978602,14.5723393 Z" id="Shape" fill="#384D76"></path>
                </g>
            </g>
        </g>
    </g>
</svg>