<?xml version="1.0" encoding="UTF-8" standalone="no"?>
<svg width="18px" height="16px" viewBox="0 0 18 16" version="1.1" xmlns="http://www.w3.org/2000/svg" xmlns:xlink="http://www.w3.org/1999/xlink">
    <!-- Generator: sketchtool 3.7.2 (28276) - http://www.bohemiancoding.com/sketch -->
    <title>E634B731-59A0-44E0-BE41-DCFA95E113BB</title>
    <desc>Created with sketchtool.</desc>
    <defs>
        <path d="M15.3175585,15.4100297 C16.9734855,13.7778432 18,11.5087993 18,9 C18,4.02943725 13.9705627,0 9,0 C4.02943725,0 0,4.02943725 0,9 C0,11.508796 1.0265119,13.7778374 2.68243513,15.4100235 C4.17854875,14.2208017 6.24572478,13.3637649 7.02092857,13.2358519 C7.41575,13.1707037 7.42475,12.0448519 7.42475,12.0448519 C7.42475,12.0448519 6.26457143,10.8538148 6.01175,9.25222222 C5.33153571,9.25222222 4.91146429,7.54951852 5.59171429,6.95044444 C5.56339286,6.31981481 4.71746429,2 9,2 C13.2825,2 12.4366786,6.31981481 12.4081786,6.95044444 C13.0885,7.54951852 12.6683571,9.25222222 11.9881786,9.25222222 C11.7353214,10.8538148 10.5751786,12.0448519 10.5751786,12.0448519 C10.5751786,12.0448519 10.5841786,13.1707037 10.979,13.2358519 C11.7542269,13.3637651 13.8214306,14.2208047 15.3175585,15.4100297 L15.3175585,15.4100297 Z" id="path-1"></path>
    </defs>
    <g id="Symbols" stroke="none" stroke-width="1" fill="none" fill-rule="evenodd">
        <g id="profile_link">
            <mask id="mask-2" fill="white">
                <use xlink:href="#path-1"></use>
            </mask>
            <use id="icon_user" fill="#384D76" xlink:href="#path-1"></use>
        </g>
    </g>
</svg>