<?xml version="1.0" encoding="UTF-8" standalone="no"?>
<svg width="18px" height="18px" viewBox="0 0 18 18" version="1.1" xmlns="http://www.w3.org/2000/svg" xmlns:xlink="http://www.w3.org/1999/xlink">
    <!-- Generator: sketchtool 3.7.2 (28276) - http://www.bohemiancoding.com/sketch -->
    <title>39B2331B-E58D-4E72-9075-57362D100EA2</title>
    <desc>Created with sketchtool.</desc>
    <defs></defs>
    <g id="Symbols" stroke="none" stroke-width="1" fill="none" fill-rule="evenodd">
        <g id="search_block" transform="translate(-21.000000, -17.000000)" fill="#384D76">
            <path d="M38.8295145,34.0210139 L34.1821284,29.4478925 C35.3991294,28.1256561 36.1468947,26.3769782 36.1468947,24.4527414 C36.1463065,20.3364439 32.7558331,17 28.5731532,17 C24.3904733,17 21,20.3364439 21,24.4527414 C21,28.5690388 24.3904733,31.9054827 28.5731532,31.9054827 C30.3803606,31.9054827 32.0378913,31.280394 33.339863,30.2411873 L38.0052786,34.8323381 C38.2326023,35.0562794 38.6016614,35.0562794 38.8289851,34.8323381 C39.0568382,34.6084261 39.0568382,34.2449552 38.8295145,34.0210139 Z M28.5731532,30.7588347 C25.0341503,30.7588347 22.1652362,27.9355089 22.1652362,24.4527414 C22.1652362,20.9699738 25.0341503,18.146648 28.5731532,18.146648 C32.1121855,18.146648 34.9810702,20.9699738 34.9810702,24.4527414 C34.9810702,27.9355089 32.1121855,30.7588347 28.5731532,30.7588347 Z" id="search_icon"></path>
        </g>
    </g>
</svg>