<?xml version="1.0" encoding="UTF-8" standalone="no"?>
<svg width="9px" height="10px" viewBox="0 0 9 10" version="1.1" xmlns="http://www.w3.org/2000/svg" xmlns:xlink="http://www.w3.org/1999/xlink">
    <!-- Generator: sketchtool 3.7.2 (28276) - http://www.bohemiancoding.com/sketch -->
    <title>A628D88C-4D58-449D-9116-FDDCA6E6227E</title>
    <desc>Created with sketchtool.</desc>
    <defs></defs>
    <g id="Symbols" stroke="none" stroke-width="1" fill="none" fill-rule="evenodd">
        <g id="time-bage" transform="translate(-10.000000, -5.000000)" fill="#333333">
            <path d="M14.5,14 L14.5,14 C16.4329966,14 18,12.4329966 18,10.5 C18,8.56700338 16.4329966,7 14.5,7 C12.5670034,7 11,8.56700338 11,10.5 C11,12.4329966 12.5670034,14 14.5,14 L14.5,14 L14.5,14 Z M14.5,15 L14.5,15 C12.0147186,15 10,12.9852814 10,10.5 C10,8.01471863 12.0147186,6 14.5,6 C16.9852814,6 19,8.01471863 19,10.5 C19,12.9852814 16.9852814,15 14.5,15 L14.5,15 L14.5,15 Z M13.2142857,6.28571429 L13.8571429,5 L15.1428571,5 L15.7857144,6.28571429 L13.2142857,6.28571429 Z M13.0527864,8.7236068 L14.0527864,10.7236068 C14.176281,10.970596 14.4766175,11.0707082 14.7236068,10.9472136 C14.970596,10.823719 15.0707082,10.5233825 14.9472136,10.2763932 L13.9472136,8.2763932 C13.823719,8.02940395 13.5233825,7.92929178 13.2763932,8.0527864 C13.029404,8.17628103 12.9292918,8.47661755 13.0527864,8.7236068 L13.0527864,8.7236068 L13.0527864,8.7236068 Z M14.7236068,10.9472136 L16.7236068,9.9472136 C16.970596,9.82371897 17.0707082,9.52338245 16.9472136,9.2763932 C16.823719,9.02940395 16.5233825,8.92929178 16.2763932,9.0527864 L14.2763932,10.0527864 C14.029404,10.176281 13.9292918,10.4766175 14.0527864,10.7236068 C14.176281,10.970596 14.4766175,11.0707082 14.7236068,10.9472136 L14.7236068,10.9472136 L14.7236068,10.9472136 Z" id="time"></path>
        </g>
    </g>
</svg>